<svg width="51" height="42" viewBox="0 0 51 42" fill="none" xmlns="http://www.w3.org/2000/svg">
<path d="M0.332336 0.642273V41.1707H50.9929V0.642273H0.332336ZM2.35876 2.6687H48.9665V29.0122H38.1457L31.0532 23.9461H25.0689L20.929 19.8062L15.9975 20.7957L11.636 14.2494L2.35876 23.5266V2.6687ZM38.3278 8.74796C35.8224 8.74796 33.7683 10.8021 33.7683 13.3074C33.7683 15.8127 35.8224 17.8669 38.3278 17.8669C40.8331 17.8669 42.8872 15.8127 42.8872 13.3074C42.8872 10.8021 40.8331 8.74796 38.3278 8.74796ZM38.3278 10.7744C39.7368 10.7744 40.8608 11.8984 40.8608 13.3074C40.8608 14.7164 39.7368 15.8404 38.3278 15.8404C36.9188 15.8404 35.7947 14.7164 35.7947 13.3074C35.7947 11.8984 36.9188 10.7744 38.3278 10.7744ZM11.3193 17.4315L15.0635 23.0437L20.2641 22.0068L24.2299 25.9726H30.4041L37.4966 31.0386H48.9665V39.1443H2.35876V26.3921L11.3193 17.4315Z" fill="#53546D"/>
</svg>
